<svg xmlns="http://www.w3.org/2000/svg" xmlns:xlink="http://www.w3.org/1999/xlink" width="500" zoomAndPan="magnify" viewBox="0 0 375 374.999991" height="500" preserveAspectRatio="xMidYMid meet" version="1.0"><defs><clipPath id="75e1a839b3"><path d="M 208 102 L 364 102 L 364 279 L 208 279 Z M 208 102 " clip-rule="nonzero"/></clipPath><clipPath id="c7fb3a8831"><path d="M -45.789062 34.066406 L 303.007812 -51.976562 L 385.097656 280.800781 L 36.304688 366.84375 Z M -45.789062 34.066406 " clip-rule="nonzero"/></clipPath><clipPath id="a733429168"><path d="M -45.789062 34.066406 L 303.007812 -51.976562 L 385.097656 280.800781 L 36.304688 366.84375 Z M -45.789062 34.066406 " clip-rule="nonzero"/></clipPath><clipPath id="f5fa826192"><path d="M 36 11 L 198 11 L 198 367 L 36 367 Z M 36 11 " clip-rule="nonzero"/></clipPath><clipPath id="58acf998cf"><path d="M -45.789062 34.066406 L 303.007812 -51.976562 L 385.097656 280.800781 L 36.304688 366.84375 Z M -45.789062 34.066406 " clip-rule="nonzero"/></clipPath><clipPath id="f71183e75d"><path d="M -45.789062 34.066406 L 303.007812 -51.976562 L 385.097656 280.800781 L 36.304688 366.84375 Z M -45.789062 34.066406 " clip-rule="nonzero"/></clipPath></defs><g clip-path="url(#75e1a839b3)"><g clip-path="url(#c7fb3a8831)"><g clip-path="url(#a733429168)"><path fill="#4ce3fa" d="M 212.34375 102.003906 L 363.308594 192.820312 L 208.445312 278.15625 L 209.816406 214.882812 L 250.96875 192.230469 L 210.925781 168.035156 Z M 212.34375 102.003906 " fill-opacity="1" fill-rule="evenodd"/></g></g></g><g clip-path="url(#f5fa826192)"><g clip-path="url(#58acf998cf)"><g clip-path="url(#f71183e75d)"><path fill="#0e7490" d="M 44.132812 11.914062 L 197.453125 104.109375 L 195.980469 170.152344 L 99.3125 112.011719 L 95.816406 271.640625 L 194.976562 216.972656 L 193.605469 280.246094 L 36.320312 366.90625 Z M 44.132812 11.914062 " fill-opacity="1" fill-rule="evenodd"/></g></g></g></svg>