<svg xmlns="http://www.w3.org/2000/svg" xmlns:xlink="http://www.w3.org/1999/xlink" width="500" zoomAndPan="magnify" viewBox="0 0 375 374.999991" height="500" preserveAspectRatio="xMidYMid meet" version="1.0"><defs><clipPath id="53b01c92a0"><path d="M 1.5 1.617188 L 370.5 1.617188 L 370.5 370.617188 L 1.5 370.617188 Z M 1.5 1.617188 " clip-rule="nonzero"/></clipPath></defs><g clip-path="url(#53b01c92a0)"><path fill="#01fff5" d="M 185.882812 1.617188 C 83.859375 1.617188 1.5 83.976562 1.5 186 C 1.5 288.023438 83.859375 370.382812 185.882812 370.382812 C 287.90625 370.382812 370.265625 288.023438 370.265625 186 C 370.265625 83.976562 287.90625 1.617188 185.882812 1.617188 Z M 273.976562 107.738281 L 236.28125 107.738281 L 236.28125 70.453125 Z M 127.289062 69.632812 C 127.289062 67.585938 128.929688 65.945312 130.976562 65.945312 L 220.300781 65.945312 L 220.300781 113.066406 L 209.238281 102.003906 C 201.453125 94.21875 197.765625 91.351562 189.160156 91.351562 L 127.289062 91.351562 Z M 235.050781 147.074219 L 197.765625 147.074219 L 197.765625 109.378906 Z M 91.644531 296.628906 C 89.59375 296.628906 87.953125 294.992188 87.953125 292.941406 L 87.953125 108.558594 C 87.953125 106.511719 89.59375 104.871094 91.644531 104.871094 L 181.375 104.871094 L 181.375 154.859375 C 181.375 159.367188 185.0625 162.644531 189.570312 162.644531 L 239.558594 162.644531 L 239.558594 292.941406 C 239.558594 294.992188 237.917969 296.628906 235.871094 296.628906 Z M 274.796875 257.703125 C 262.09375 257.703125 253.078125 257.703125 253.078125 257.703125 L 253.078125 154.859375 C 253.078125 147.894531 251.03125 143.796875 246.113281 138.878906 L 230.953125 123.71875 L 278.074219 123.71875 L 278.074219 253.605469 C 278.484375 256.066406 276.84375 257.703125 274.796875 257.703125 Z M 274.796875 257.703125 " fill-opacity="1" fill-rule="nonzero"/></g></svg>