<svg xmlns="http://www.w3.org/2000/svg" xmlns:xlink="http://www.w3.org/1999/xlink" width="500" zoomAndPan="magnify" viewBox="0 0 375 374.999991" height="500" preserveAspectRatio="xMidYMid meet" version="1.0"><defs><clipPath id="91bc589eda"><path d="M 24 26 L 357 26 L 357 358.875 L 24 358.875 Z M 24 26 " clip-rule="nonzero"/></clipPath><clipPath id="7627104c82"><path d="M 7.183594 16.125 L 186 16.125 L 186 200 L 7.183594 200 Z M 7.183594 16.125 " clip-rule="nonzero"/></clipPath><clipPath id="1948a77fea"><path d="M 196 16.125 L 373.933594 16.125 L 373.933594 200 L 196 200 Z M 196 16.125 " clip-rule="nonzero"/></clipPath></defs><g clip-path="url(#91bc589eda)"><path fill="#fed234" d="M 197.679688 26.683594 L 183.675781 26.683594 C 95.828125 26.683594 24.550781 97.886719 24.550781 185.808594 L 24.550781 213.890625 C 24.550781 293.96875 89.449219 358.863281 169.523438 358.863281 L 211.6875 358.863281 C 291.761719 358.863281 356.65625 293.96875 356.65625 213.890625 L 356.65625 185.808594 C 356.804688 97.886719 285.601562 26.683594 197.679688 26.683594 Z M 197.679688 26.683594 " fill-opacity="1" fill-rule="nonzero"/></g><g clip-path="url(#7627104c82)"><path fill="#01fff5" d="M 151.632812 112.992188 L 177.441406 171.582031 L 115.261719 156.402344 L 67.449219 199.082031 L 62.683594 135.210938 L 7.394531 102.945312 L 66.644531 78.675781 L 80.207031 16.125 L 121.640625 64.960938 L 185.289062 58.582031 Z M 151.632812 112.992188 " fill-opacity="1" fill-rule="nonzero"/></g><g clip-path="url(#1948a77fea)"><path fill="#01fff5" d="M 374.035156 102.945312 L 318.746094 135.210938 L 313.980469 199.082031 L 266.171875 156.402344 L 203.988281 171.582031 L 229.800781 112.992188 L 196.140625 58.582031 L 259.789062 64.960938 L 301.222656 16.125 L 314.789062 78.675781 Z M 374.035156 102.945312 " fill-opacity="1" fill-rule="nonzero"/></g><path fill="#0e7490" d="M 300.78125 221.226562 C 300.78125 249.675781 289.269531 275.488281 270.570312 294.113281 C 266.171875 298.515625 261.402344 302.546875 256.269531 306.066406 C 239.625 317.578125 219.460938 324.324219 197.679688 324.324219 L 183.75 324.324219 C 161.96875 324.324219 141.804688 317.578125 125.160156 306.066406 C 98.246094 287.441406 80.648438 256.421875 80.648438 221.226562 Z M 300.78125 221.226562 " fill-opacity="1" fill-rule="nonzero"/><path fill="#ffffff" d="M 122.8125 248.285156 C 110.566406 248.285156 100.082031 240.144531 96.78125 228.777344 L 284.648438 228.777344 C 283.402344 233.105469 281.054688 237.136719 277.757812 240.363281 C 272.625 245.496094 265.878906 248.285156 258.617188 248.285156 Z M 122.8125 248.285156 " fill-opacity="1" fill-rule="nonzero"/><path fill="#ffffff" d="M 183.75 316.773438 C 164.242188 316.773438 145.472656 310.90625 129.484375 299.832031 C 114.527344 289.496094 103.015625 275.34375 95.902344 258.769531 L 285.601562 258.769531 C 280.835938 269.914062 274.015625 280.035156 265.289062 288.761719 C 261.183594 292.867188 256.710938 296.605469 252.019531 299.832031 C 236.03125 310.90625 217.261719 316.773438 197.753906 316.773438 Z M 183.75 316.773438 " fill-opacity="1" fill-rule="nonzero"/></svg>