<svg xmlns="http://www.w3.org/2000/svg" xmlns:xlink="http://www.w3.org/1999/xlink" width="400" zoomAndPan="magnify" viewBox="0 0 300 299.999988" height="400" preserveAspectRatio="xMidYMid meet" version="1.0"><defs><clipPath id="ee778a9b54"><path d="M 7.5 3 L 292.5 3 L 292.5 300 L 7.5 300 Z M 7.5 3 " clip-rule="nonzero"/></clipPath></defs><g clip-path="url(#ee778a9b54)"><path fill="#01fff5" d="M 101.25 168.375 C 101.25 169.359375 101.152344 170.335938 100.960938 171.300781 C 100.769531 172.265625 100.484375 173.207031 100.109375 174.113281 C 99.730469 175.023438 99.269531 175.890625 98.722656 176.707031 C 98.175781 177.527344 97.554688 178.285156 96.855469 178.980469 C 96.160156 179.679688 95.402344 180.300781 94.582031 180.847656 C 93.765625 181.394531 92.898438 181.855469 91.992188 182.234375 C 91.082031 182.609375 90.140625 182.894531 89.175781 183.085938 C 88.210938 183.277344 87.234375 183.375 86.25 183.375 C 85.265625 183.375 84.289062 183.277344 83.324219 183.085938 C 82.359375 182.894531 81.417969 182.609375 80.507812 182.234375 C 79.601562 181.855469 78.734375 181.394531 77.917969 180.847656 C 77.097656 180.300781 76.339844 179.679688 75.644531 178.980469 C 74.945312 178.285156 74.324219 177.527344 73.777344 176.707031 C 73.230469 175.890625 72.769531 175.023438 72.390625 174.113281 C 72.015625 173.207031 71.730469 172.265625 71.539062 171.300781 C 71.347656 170.335938 71.25 169.359375 71.25 168.375 C 71.25 167.390625 71.347656 166.414062 71.539062 165.449219 C 71.730469 164.484375 72.015625 163.542969 72.390625 162.632812 C 72.769531 161.726562 73.230469 160.859375 73.777344 160.042969 C 74.324219 159.222656 74.945312 158.464844 75.644531 157.769531 C 76.339844 157.070312 77.097656 156.449219 77.917969 155.902344 C 78.734375 155.355469 79.601562 154.894531 80.507812 154.515625 C 81.417969 154.140625 82.359375 153.855469 83.324219 153.664062 C 84.289062 153.472656 85.265625 153.375 86.25 153.375 C 87.234375 153.375 88.210938 153.472656 89.175781 153.664062 C 90.140625 153.855469 91.082031 154.140625 91.992188 154.515625 C 92.898438 154.894531 93.765625 155.355469 94.582031 155.902344 C 95.402344 156.449219 96.160156 157.070312 96.855469 157.769531 C 97.554688 158.464844 98.175781 159.222656 98.722656 160.042969 C 99.269531 160.859375 99.730469 161.726562 100.109375 162.632812 C 100.484375 163.542969 100.769531 164.484375 100.960938 165.449219 C 101.152344 166.414062 101.25 167.390625 101.25 168.375 Z M 206.25 157.125 L 142.5 157.125 C 141.761719 157.125 141.03125 157.195312 140.304688 157.339844 C 139.582031 157.484375 138.878906 157.699219 138.195312 157.980469 C 137.511719 158.265625 136.863281 158.609375 136.25 159.019531 C 135.636719 159.429688 135.066406 159.898438 134.546875 160.421875 C 134.023438 160.941406 133.554688 161.511719 133.144531 162.125 C 132.734375 162.738281 132.390625 163.386719 132.105469 164.070312 C 131.824219 164.753906 131.609375 165.457031 131.464844 166.179688 C 131.320312 166.90625 131.25 167.636719 131.25 168.375 C 131.25 169.113281 131.320312 169.84375 131.464844 170.570312 C 131.609375 171.292969 131.824219 171.996094 132.105469 172.679688 C 132.390625 173.363281 132.734375 174.011719 133.144531 174.625 C 133.554688 175.238281 134.023438 175.808594 134.546875 176.328125 C 135.066406 176.851562 135.636719 177.320312 136.25 177.730469 C 136.863281 178.140625 137.511719 178.484375 138.195312 178.769531 C 138.878906 179.050781 139.582031 179.265625 140.304688 179.410156 C 141.03125 179.554688 141.761719 179.625 142.5 179.625 L 206.25 179.625 C 206.988281 179.625 207.71875 179.554688 208.445312 179.410156 C 209.167969 179.265625 209.871094 179.050781 210.554688 178.769531 C 211.238281 178.484375 211.886719 178.140625 212.5 177.730469 C 213.113281 177.320312 213.683594 176.851562 214.203125 176.328125 C 214.726562 175.808594 215.195312 175.238281 215.605469 174.625 C 216.015625 174.011719 216.359375 173.363281 216.644531 172.679688 C 216.925781 171.996094 217.140625 171.292969 217.285156 170.570312 C 217.429688 169.84375 217.5 169.113281 217.5 168.375 C 217.5 167.636719 217.429688 166.90625 217.285156 166.179688 C 217.140625 165.457031 216.925781 164.753906 216.644531 164.070312 C 216.359375 163.386719 216.015625 162.738281 215.605469 162.125 C 215.195312 161.511719 214.726562 160.941406 214.203125 160.421875 C 213.683594 159.898438 213.113281 159.429688 212.5 159.019531 C 211.886719 158.609375 211.238281 158.265625 210.554688 157.980469 C 209.871094 157.699219 209.167969 157.484375 208.445312 157.339844 C 207.71875 157.195312 206.988281 157.125 206.25 157.125 Z M 86.25 213.375 C 85.265625 213.375 84.289062 213.472656 83.324219 213.664062 C 82.359375 213.855469 81.417969 214.140625 80.507812 214.515625 C 79.601562 214.894531 78.734375 215.355469 77.917969 215.902344 C 77.097656 216.449219 76.339844 217.070312 75.644531 217.769531 C 74.945312 218.464844 74.324219 219.222656 73.777344 220.042969 C 73.230469 220.859375 72.769531 221.726562 72.390625 222.632812 C 72.015625 223.542969 71.730469 224.484375 71.539062 225.449219 C 71.347656 226.414062 71.25 227.390625 71.25 228.375 C 71.25 229.359375 71.347656 230.335938 71.539062 231.300781 C 71.730469 232.265625 72.015625 233.207031 72.390625 234.113281 C 72.769531 235.023438 73.230469 235.890625 73.777344 236.707031 C 74.324219 237.527344 74.945312 238.285156 75.644531 238.980469 C 76.339844 239.679688 77.097656 240.300781 77.917969 240.847656 C 78.734375 241.394531 79.601562 241.855469 80.507812 242.234375 C 81.417969 242.609375 82.359375 242.894531 83.324219 243.085938 C 84.289062 243.277344 85.265625 243.375 86.25 243.375 C 87.234375 243.375 88.210938 243.277344 89.175781 243.085938 C 90.140625 242.894531 91.082031 242.609375 91.992188 242.234375 C 92.898438 241.855469 93.765625 241.394531 94.582031 240.847656 C 95.402344 240.300781 96.160156 239.679688 96.855469 238.980469 C 97.554688 238.285156 98.175781 237.527344 98.722656 236.707031 C 99.269531 235.890625 99.730469 235.023438 100.109375 234.113281 C 100.484375 233.207031 100.769531 232.265625 100.960938 231.300781 C 101.152344 230.335938 101.25 229.359375 101.25 228.375 C 101.25 227.390625 101.152344 226.414062 100.960938 225.449219 C 100.769531 224.484375 100.484375 223.542969 100.109375 222.632812 C 99.730469 221.726562 99.269531 220.859375 98.722656 220.042969 C 98.175781 219.222656 97.554688 218.464844 96.855469 217.769531 C 96.160156 217.070312 95.402344 216.449219 94.582031 215.902344 C 93.765625 215.355469 92.898438 214.894531 91.992188 214.515625 C 91.082031 214.140625 90.140625 213.855469 89.175781 213.664062 C 88.210938 213.472656 87.234375 213.375 86.25 213.375 Z M 206.25 217.125 L 142.5 217.125 C 141.761719 217.125 141.03125 217.195312 140.304688 217.339844 C 139.582031 217.484375 138.878906 217.699219 138.195312 217.980469 C 137.511719 218.265625 136.863281 218.609375 136.25 219.019531 C 135.636719 219.429688 135.066406 219.898438 134.546875 220.421875 C 134.023438 220.941406 133.554688 221.511719 133.144531 222.125 C 132.734375 222.738281 132.390625 223.386719 132.105469 224.070312 C 131.824219 224.753906 131.609375 225.457031 131.464844 226.179688 C 131.320312 226.90625 131.25 227.636719 131.25 228.375 C 131.25 229.113281 131.320312 229.84375 131.464844 230.570312 C 131.609375 231.292969 131.824219 231.996094 132.105469 232.679688 C 132.390625 233.363281 132.734375 234.011719 133.144531 234.625 C 133.554688 235.238281 134.023438 235.808594 134.546875 236.328125 C 135.066406 236.851562 135.636719 237.320312 136.25 237.730469 C 136.863281 238.140625 137.511719 238.484375 138.195312 238.769531 C 138.878906 239.050781 139.582031 239.265625 140.304688 239.410156 C 141.03125 239.554688 141.761719 239.625 142.5 239.625 L 206.25 239.625 C 206.988281 239.625 207.71875 239.554688 208.445312 239.410156 C 209.167969 239.265625 209.871094 239.050781 210.554688 238.769531 C 211.238281 238.484375 211.886719 238.140625 212.5 237.730469 C 213.113281 237.320312 213.683594 236.851562 214.203125 236.328125 C 214.726562 235.808594 215.195312 235.238281 215.605469 234.625 C 216.015625 234.011719 216.359375 233.363281 216.644531 232.679688 C 216.925781 231.996094 217.140625 231.292969 217.285156 230.570312 C 217.429688 229.84375 217.5 229.113281 217.5 228.375 C 217.5 227.636719 217.429688 226.90625 217.285156 226.179688 C 217.140625 225.457031 216.925781 224.753906 216.644531 224.070312 C 216.359375 223.386719 216.015625 222.738281 215.605469 222.125 C 215.195312 221.511719 214.726562 220.941406 214.203125 220.421875 C 213.683594 219.898438 213.113281 219.429688 212.5 219.019531 C 211.886719 218.609375 211.238281 218.265625 210.554688 217.980469 C 209.871094 217.699219 209.167969 217.484375 208.445312 217.339844 C 207.71875 217.195312 206.988281 217.125 206.25 217.125 Z M 292.5 63.375 C 292.5 65.339844 292.402344 67.300781 292.210938 69.257812 C 292.019531 71.210938 291.730469 73.152344 291.347656 75.082031 C 290.964844 77.007812 290.488281 78.910156 289.917969 80.792969 C 289.347656 82.671875 288.683594 84.519531 287.933594 86.335938 C 287.179688 88.152344 286.339844 89.925781 285.414062 91.660156 C 284.488281 93.390625 283.480469 95.074219 282.386719 96.710938 C 281.296875 98.34375 280.128906 99.917969 278.878906 101.4375 C 277.632812 102.957031 276.316406 104.410156 274.925781 105.800781 C 273.535156 107.191406 272.082031 108.507812 270.5625 109.753906 C 269.042969 111.003906 267.46875 112.171875 265.835938 113.261719 C 264.199219 114.355469 262.515625 115.363281 260.785156 116.289062 C 259.050781 117.214844 257.277344 118.054688 255.460938 118.808594 C 253.644531 119.558594 251.796875 120.222656 249.917969 120.792969 C 248.035156 121.363281 246.132812 121.839844 244.207031 122.222656 C 242.277344 122.605469 240.335938 122.894531 238.382812 123.085938 C 236.425781 123.277344 234.464844 123.375 232.5 123.375 C 230.535156 123.375 228.574219 123.277344 226.617188 123.085938 C 224.664062 122.894531 222.722656 122.605469 220.792969 122.222656 C 218.867188 121.839844 216.964844 121.363281 215.082031 120.792969 C 213.203125 120.222656 211.355469 119.558594 209.539062 118.808594 C 207.722656 118.054688 205.949219 117.214844 204.214844 116.289062 C 202.484375 115.363281 200.800781 114.355469 199.164062 113.261719 C 197.53125 112.171875 195.957031 111.003906 194.4375 109.753906 C 192.917969 108.507812 191.464844 107.191406 190.074219 105.800781 C 188.683594 104.410156 187.367188 102.957031 186.121094 101.4375 C 184.871094 99.917969 183.703125 98.34375 182.613281 96.710938 C 181.519531 95.074219 180.511719 93.390625 179.585938 91.660156 C 178.660156 89.925781 177.820312 88.152344 177.066406 86.335938 C 176.316406 84.519531 175.652344 82.671875 175.082031 80.792969 C 174.511719 78.910156 174.035156 77.007812 173.652344 75.082031 C 173.269531 73.152344 172.980469 71.210938 172.789062 69.257812 C 172.597656 67.300781 172.5 65.339844 172.5 63.375 C 172.5 61.410156 172.597656 59.449219 172.789062 57.492188 C 172.980469 55.539062 173.269531 53.597656 173.652344 51.667969 C 174.035156 49.742188 174.511719 47.839844 175.082031 45.957031 C 175.652344 44.078125 176.316406 42.230469 177.066406 40.414062 C 177.820312 38.597656 178.660156 36.824219 179.585938 35.089844 C 180.511719 33.359375 181.519531 31.675781 182.613281 30.039062 C 183.703125 28.40625 184.871094 26.832031 186.121094 25.3125 C 187.367188 23.792969 188.683594 22.339844 190.074219 20.949219 C 191.464844 19.558594 192.917969 18.242188 194.4375 16.996094 C 195.957031 15.746094 197.53125 14.578125 199.164062 13.488281 C 200.800781 12.394531 202.484375 11.386719 204.214844 10.460938 C 205.949219 9.535156 207.722656 8.695312 209.539062 7.941406 C 211.355469 7.191406 213.203125 6.527344 215.082031 5.957031 C 216.964844 5.386719 218.867188 4.910156 220.792969 4.527344 C 222.722656 4.144531 224.664062 3.855469 226.617188 3.664062 C 228.574219 3.472656 230.535156 3.375 232.5 3.375 C 234.464844 3.375 236.425781 3.472656 238.382812 3.664062 C 240.335938 3.855469 242.277344 4.144531 244.207031 4.527344 C 246.132812 4.910156 248.035156 5.386719 249.917969 5.957031 C 251.796875 6.527344 253.644531 7.191406 255.460938 7.941406 C 257.277344 8.695312 259.050781 9.535156 260.785156 10.460938 C 262.515625 11.386719 264.199219 12.394531 265.835938 13.488281 C 267.46875 14.578125 269.042969 15.746094 270.5625 16.996094 C 272.082031 18.242188 273.535156 19.558594 274.925781 20.949219 C 276.316406 22.339844 277.632812 23.792969 278.878906 25.3125 C 280.128906 26.832031 281.296875 28.40625 282.386719 30.039062 C 283.480469 31.675781 284.488281 33.359375 285.414062 35.089844 C 286.339844 36.824219 287.179688 38.597656 287.933594 40.414062 C 288.683594 42.230469 289.347656 44.078125 289.917969 45.957031 C 290.488281 47.839844 290.964844 49.742188 291.347656 51.667969 C 291.730469 53.597656 292.019531 55.539062 292.210938 57.492188 C 292.402344 59.449219 292.5 61.410156 292.5 63.375 Z M 262.949219 47.925781 C 262.425781 47.402344 261.859375 46.9375 261.246094 46.527344 C 260.632812 46.117188 259.984375 45.769531 259.300781 45.488281 C 258.617188 45.203125 257.914062 44.992188 257.191406 44.847656 C 256.464844 44.703125 255.734375 44.628906 254.996094 44.628906 C 254.257812 44.628906 253.523438 44.703125 252.800781 44.847656 C 252.078125 44.992188 251.371094 45.203125 250.691406 45.488281 C 250.007812 45.769531 249.359375 46.117188 248.746094 46.527344 C 248.132812 46.9375 247.5625 47.402344 247.039062 47.925781 L 232.492188 62.476562 L 217.941406 47.925781 C 217.410156 47.4375 216.839844 47.003906 216.230469 46.625 C 215.617188 46.242188 214.972656 45.925781 214.300781 45.671875 C 213.628906 45.414062 212.9375 45.226562 212.226562 45.101562 C 211.515625 44.980469 210.800781 44.925781 210.082031 44.941406 C 209.363281 44.953125 208.648438 45.035156 207.945312 45.1875 C 207.242188 45.339844 206.558594 45.554688 205.894531 45.839844 C 205.234375 46.121094 204.601562 46.464844 204.007812 46.867188 C 203.410156 47.269531 202.855469 47.726562 202.347656 48.234375 C 201.839844 48.746094 201.382812 49.300781 200.980469 49.894531 C 200.578125 50.492188 200.234375 51.121094 199.953125 51.785156 C 199.671875 52.449219 199.457031 53.132812 199.304688 53.835938 C 199.152344 54.539062 199.070312 55.253906 199.058594 55.972656 C 199.042969 56.691406 199.097656 57.40625 199.222656 58.117188 C 199.347656 58.828125 199.535156 59.519531 199.792969 60.191406 C 200.050781 60.863281 200.367188 61.507812 200.746094 62.117188 C 201.125 62.730469 201.5625 63.300781 202.050781 63.828125 L 224.550781 86.328125 C 225.074219 86.851562 225.640625 87.316406 226.253906 87.726562 C 226.867188 88.140625 227.515625 88.484375 228.199219 88.769531 C 228.882812 89.050781 229.585938 89.265625 230.308594 89.40625 C 231.035156 89.550781 231.765625 89.625 232.503906 89.625 C 233.242188 89.625 233.976562 89.550781 234.699219 89.40625 C 235.421875 89.265625 236.128906 89.050781 236.808594 88.769531 C 237.492188 88.484375 238.140625 88.140625 238.753906 87.726562 C 239.367188 87.316406 239.9375 86.851562 240.460938 86.328125 L 262.960938 63.828125 C 263.480469 63.308594 263.945312 62.738281 264.355469 62.125 C 264.765625 61.507812 265.113281 60.859375 265.394531 60.179688 C 265.675781 59.496094 265.890625 58.792969 266.035156 58.066406 C 266.179688 57.34375 266.25 56.613281 266.25 55.875 C 266.25 55.132812 266.175781 54.402344 266.03125 53.679688 C 265.886719 52.953125 265.671875 52.25 265.390625 51.570312 C 265.109375 50.886719 264.761719 50.238281 264.351562 49.625 C 263.9375 49.011719 263.472656 48.441406 262.949219 47.921875 Z M 37.5 18.375 C 36.515625 18.375 35.539062 18.421875 34.558594 18.519531 C 33.582031 18.617188 32.609375 18.757812 31.648438 18.953125 C 30.683594 19.144531 29.730469 19.382812 28.792969 19.667969 C 27.851562 19.953125 26.925781 20.28125 26.019531 20.660156 C 25.113281 21.035156 24.226562 21.453125 23.359375 21.917969 C 22.492188 22.378906 21.648438 22.886719 20.832031 23.429688 C 20.015625 23.976562 19.226562 24.5625 18.46875 25.183594 C 17.707031 25.808594 16.980469 26.46875 16.285156 27.160156 C 15.59375 27.855469 14.933594 28.582031 14.308594 29.34375 C 13.6875 30.101562 13.101562 30.890625 12.554688 31.707031 C 12.011719 32.523438 11.503906 33.367188 11.042969 34.234375 C 10.578125 35.101562 10.160156 35.988281 9.785156 36.894531 C 9.40625 37.800781 9.078125 38.726562 8.792969 39.667969 C 8.507812 40.605469 8.269531 41.558594 8.078125 42.523438 C 7.882812 43.484375 7.742188 44.457031 7.644531 45.433594 C 7.546875 46.414062 7.5 47.390625 7.5 48.375 L 7.5 258.375 C 7.5 259.726562 7.570312 261.074219 7.703125 262.417969 C 7.835938 263.761719 8.035156 265.09375 8.300781 266.417969 C 8.5625 267.742188 8.894531 269.050781 9.285156 270.34375 C 9.679688 271.636719 10.132812 272.90625 10.652344 274.152344 C 11.167969 275.402344 11.746094 276.621094 12.382812 277.8125 C 13.019531 279.003906 13.714844 280.160156 14.464844 281.28125 C 15.214844 282.40625 16.019531 283.488281 16.875 284.53125 C 17.734375 285.578125 18.640625 286.574219 19.59375 287.53125 C 20.550781 288.484375 21.546875 289.390625 22.59375 290.25 C 23.636719 291.105469 24.71875 291.910156 25.84375 292.660156 C 26.964844 293.410156 28.121094 294.105469 29.3125 294.742188 C 30.503906 295.378906 31.722656 295.957031 32.972656 296.472656 C 34.21875 296.992188 35.488281 297.445312 36.78125 297.839844 C 38.074219 298.230469 39.382812 298.5625 40.707031 298.824219 C 42.03125 299.089844 43.363281 299.289062 44.707031 299.421875 C 46.050781 299.554688 47.398438 299.625 48.75 299.625 L 236.25 299.625 C 237.601562 299.625 238.949219 299.554688 240.292969 299.421875 C 241.636719 299.289062 242.96875 299.089844 244.292969 298.824219 C 245.617188 298.5625 246.925781 298.230469 248.21875 297.839844 C 249.511719 297.445312 250.78125 296.992188 252.027344 296.472656 C 253.277344 295.957031 254.496094 295.378906 255.6875 294.742188 C 256.878906 294.105469 258.035156 293.410156 259.15625 292.660156 C 260.28125 291.910156 261.363281 291.105469 262.40625 290.25 C 263.453125 289.390625 264.449219 288.484375 265.40625 287.53125 C 266.359375 286.574219 267.265625 285.578125 268.125 284.53125 C 268.980469 283.488281 269.785156 282.40625 270.535156 281.28125 C 271.285156 280.160156 271.980469 279.003906 272.617188 277.8125 C 273.253906 276.621094 273.832031 275.402344 274.347656 274.152344 C 274.867188 272.90625 275.320312 271.636719 275.714844 270.34375 C 276.105469 269.050781 276.4375 267.742188 276.699219 266.417969 C 276.964844 265.09375 277.164062 263.761719 277.296875 262.417969 C 277.429688 261.074219 277.5 259.726562 277.5 258.375 L 277.5 141.199219 C 270.421875 145.300781 262.921875 148.371094 255 150.414062 L 255 258.375 C 255 258.988281 254.96875 259.601562 254.90625 260.210938 C 254.847656 260.824219 254.757812 261.429688 254.636719 262.03125 C 254.515625 262.632812 254.367188 263.230469 254.1875 263.816406 C 254.011719 264.402344 253.804688 264.980469 253.566406 265.546875 C 253.332031 266.113281 253.070312 266.667969 252.78125 267.210938 C 252.492188 267.75 252.175781 268.277344 251.835938 268.789062 C 251.492188 269.296875 251.128906 269.789062 250.738281 270.265625 C 250.347656 270.738281 249.9375 271.195312 249.503906 271.628906 C 249.070312 272.0625 248.613281 272.472656 248.140625 272.863281 C 247.664062 273.253906 247.171875 273.617188 246.664062 273.960938 C 246.152344 274.300781 245.625 274.617188 245.085938 274.90625 C 244.542969 275.195312 243.988281 275.457031 243.421875 275.691406 C 242.855469 275.929688 242.277344 276.136719 241.691406 276.3125 C 241.105469 276.492188 240.507812 276.640625 239.90625 276.761719 C 239.304688 276.882812 238.699219 276.972656 238.085938 277.035156 C 237.476562 277.09375 236.863281 277.125 236.25 277.125 L 48.75 277.125 C 48.136719 277.125 47.523438 277.09375 46.914062 277.03125 C 46.300781 276.972656 45.695312 276.882812 45.09375 276.761719 C 44.492188 276.640625 43.894531 276.492188 43.308594 276.3125 C 42.722656 276.136719 42.144531 275.929688 41.578125 275.691406 C 41.011719 275.457031 40.457031 275.195312 39.914062 274.90625 C 39.375 274.617188 38.847656 274.300781 38.335938 273.960938 C 37.828125 273.617188 37.335938 273.253906 36.859375 272.863281 C 36.386719 272.472656 35.929688 272.0625 35.496094 271.628906 C 35.0625 271.195312 34.652344 270.738281 34.261719 270.265625 C 33.871094 269.789062 33.507812 269.296875 33.164062 268.789062 C 32.824219 268.277344 32.507812 267.75 32.21875 267.210938 C 31.929688 266.667969 31.667969 266.113281 31.433594 265.546875 C 31.195312 264.980469 30.988281 264.402344 30.8125 263.816406 C 30.632812 263.230469 30.484375 262.632812 30.363281 262.03125 C 30.242188 261.429688 30.152344 260.824219 30.089844 260.210938 C 30.03125 259.601562 30 258.988281 30 258.375 L 30 108.375 L 154.675781 108.375 C 153.6875 106.675781 152.75 104.949219 151.875 103.1875 C 150.996094 101.429688 150.179688 99.644531 149.417969 97.828125 C 148.660156 96.015625 147.960938 94.179688 147.324219 92.320312 C 146.6875 90.460938 146.113281 88.582031 145.597656 86.683594 C 145.085938 84.785156 144.632812 82.875 144.246094 80.945312 C 143.859375 79.019531 143.535156 77.082031 143.277344 75.132812 C 143.019531 73.183594 142.824219 71.226562 142.695312 69.265625 C 142.566406 67.304688 142.5 65.339844 142.5 63.375 C 142.5 61.410156 142.566406 59.445312 142.695312 57.484375 C 142.824219 55.523438 143.019531 53.566406 143.277344 51.617188 C 143.535156 49.667969 143.859375 47.730469 144.246094 45.804688 C 144.632812 43.875 145.085938 41.964844 145.597656 40.066406 C 146.113281 38.167969 146.6875 36.289062 147.324219 34.429688 C 147.960938 32.570312 148.660156 30.734375 149.417969 28.921875 C 150.179688 27.105469 150.996094 25.320312 151.875 23.5625 C 152.75 21.800781 153.6875 20.074219 154.675781 18.375 Z M 37.5 18.375 " fill-opacity="1" fill-rule="nonzero"/></g><path stroke-linecap="butt" transform="matrix(0.75, 0, 0, 0.75, 30.000004, 104.47899)" fill="none" stroke-linejoin="miter" d="M -0.00000473333 0.501972 L 128.000006 0.501972 " stroke="#01fff5" stroke-width="1" stroke-opacity="1" stroke-miterlimit="4"/></svg>